HIERARCHY
ROOT joint_Root
{
	OFFSET 0.0 0.0 0.0
	CHANNELS 6 Xposition Yposition Zposition Zrotation Xrotation Yrotation 
	JOINT Hips
	{
		OFFSET 4.5925 91.4895 -427.239
		CHANNELS 6 Xposition Yposition Zposition Zrotation Xrotation Yrotation 
		JOINT Spine
		{
			OFFSET 15.7357 0.0 0.0
			CHANNELS 6 Xposition Yposition Zposition Zrotation Xrotation Yrotation 
			JOINT Chest
			{
				OFFSET 8.98455 -0.406207 0.0
				CHANNELS 6 Xposition Yposition Zposition Zrotation Xrotation Yrotation 
				JOINT Neck
				{
					OFFSET 16.3773 0.0 0.0
					CHANNELS 6 Xposition Yposition Zposition Zrotation Xrotation Yrotation 
					JOINT Head
					{
						OFFSET 6.45672 0.0 0.0
						CHANNELS 6 Xposition Yposition Zposition Zrotation Xrotation Yrotation 
						End Site
						{
							OFFSET 0.0 0.0 0.0
						}
					}
				}
				JOINT Shoulder_L
				{
					OFFSET 12.9942 -0.242716 4.98039
					CHANNELS 6 Xposition Yposition Zposition Zrotation Xrotation Yrotation 
					JOINT UpperArm_L
					{
						OFFSET 5.34809 0.0 0.0
						CHANNELS 6 Xposition Yposition Zposition Zrotation Xrotation Yrotation 
						JOINT LowerArm_L
						{
							OFFSET 24.3286 1.87007e-05 0.0
							CHANNELS 6 Xposition Yposition Zposition Zrotation Xrotation Yrotation 
							JOINT Hand_L
							{
								OFFSET 22.2916 0.0 0.0
								CHANNELS 6 Xposition Yposition Zposition Zrotation Xrotation Yrotation 
								End Site
								{
									OFFSET 0.0 0.0 0.0
								}
							}
						}
					}
				}
				JOINT Shoulder_R
				{
					OFFSET 12.9945 -0.242716 -4.98039
					CHANNELS 6 Xposition Yposition Zposition Zrotation Xrotation Yrotation 
					JOINT UpperArm_R
					{
						OFFSET -5.34813 0.0 0.0
						CHANNELS 6 Xposition Yposition Zposition Zrotation Xrotation Yrotation 
						JOINT LowerArm_R
						{
							OFFSET -24.3289 0.000322201 0.0
							CHANNELS 6 Xposition Yposition Zposition Zrotation Xrotation Yrotation 
							JOINT Hand_R
							{
								OFFSET -22.2915 -0.000108084 0.0
								CHANNELS 6 Xposition Yposition Zposition Zrotation Xrotation Yrotation 
								End Site
								{
									OFFSET 0.0 0.0 0.0
								}
							}
						}
					}
				}
			}
		}
		JOINT UpperLeg_L
		{
			OFFSET -2.19248 -6.46944 0.0
			CHANNELS 6 Xposition Yposition Zposition Zrotation Xrotation Yrotation 
			JOINT LowerLeg_L
			{
				OFFSET 39.0811 0.0 -1.23785e-05
				CHANNELS 6 Xposition Yposition Zposition Zrotation Xrotation Yrotation 
				JOINT Foot_L
				{
					OFFSET 40.9854 0.0 -1.26872e-05
					CHANNELS 6 Xposition Yposition Zposition Zrotation Xrotation Yrotation 
					JOINT Toes_L
					{
						OFFSET 11.7543 0.0 0.0
						CHANNELS 6 Xposition Yposition Zposition Zrotation Xrotation Yrotation 
						End Site
						{
							OFFSET 0.0 0.0 0.0
						}
					}
				}
			}
		}
		JOINT UpperLeg_R
		{
			OFFSET -2.19251 6.46944 0.0
			CHANNELS 6 Xposition Yposition Zposition Zrotation Xrotation Yrotation 
			JOINT LowerLeg_R
			{
				OFFSET -39.0811 -0.00228153 -0.0401928
				CHANNELS 6 Xposition Yposition Zposition Zrotation Xrotation Yrotation 
				JOINT Foot_R
				{
					OFFSET -40.9854 0.0 0.0
					CHANNELS 6 Xposition Yposition Zposition Zrotation Xrotation Yrotation 
					JOINT Toes_R
					{
						OFFSET -11.7543 0.0 0.0
						CHANNELS 6 Xposition Yposition Zposition Zrotation Xrotation Yrotation 
						End Site
						{
							OFFSET 0.0 0.0 0.0
						}
					}
				}
			}
		}
	}
}
MOTION
Frames:	4
Frame Time:	0.0333333
0.000000 0.000000 0.000000 0.000000 0.000000 -0.000000 137.119000 86.275700 147.182000 108.799000 -50.538500 15.999800 15.735700 0.000005 -0.000001 89.180200 84.638700 -89.331400 8.984550 -0.406207 -0.000000 2.955260 -0.146918 -0.298217 16.377300 -0.000001 -0.000001 0.457503 -13.195700 3.994210 6.456720 -0.000001 -0.000000 -2.231400 -18.237900 6.867750 12.994200 -0.242716 4.980390 -90.826600 2.310190 -70.292200 5.348090 -0.000007 -0.000001 -64.210800 48.654200 9.798540 24.328600 0.000019 0.000005 -7.091110 -2.657830 -69.552200 22.291600 -0.000001 0.000005 9.182350 5.543040 -8.382650 12.994500 -0.242716 -4.980390 88.195700 9.320670 -78.997700 -5.348130 -0.000001 -0.000004 -46.614500 53.991000 -38.000600 -24.328900 0.000322 -0.000009 5.213880 -0.920109 -99.986100 -22.291500 -0.000108 -0.000004 22.173200 5.652130 -15.210400 -2.192480 -6.469440 -0.000000 179.495000 -12.698700 -20.826800 39.081100 -0.000007 -0.000012 -0.173570 0.029727 80.283700 40.985400 -0.000006 -0.000013 12.663000 -13.536300 -45.058800 11.754300 -0.000000 0.000003 -0.007405 -0.083118 -19.960900 -2.192510 6.469440 -0.000001 -175.847000 17.886300 174.017000 -39.081100 -0.002282 -0.040193 0.096023 -0.125010 36.569100 -40.985400 0.000008 0.000006 24.900700 -6.566140 -78.413100 -11.754300 -0.000006 -0.000006 -0.018166 -0.156911 -22.980700
0.000000 0.000000 0.000000 0.000000 0.000000 -0.000000 134.740000 88.220700 149.631000 113.864000 -59.090400 19.222700 15.735700 0.000005 -0.000001 112.785000 84.601700 -113.853000 8.984550 -0.406207 -0.000000 2.234050 4.229770 -2.216300 16.377300 -0.000001 -0.000001 0.617382 -11.869800 4.462290 6.456720 -0.000001 -0.000000 -1.555310 -18.645800 8.080940 12.994200 -0.242716 4.980390 -90.055800 0.141255 -68.285300 5.348090 -0.000007 -0.000001 -65.473100 47.740500 18.350700 24.328600 0.000019 0.000005 -7.079370 -2.269340 -72.319100 22.291600 -0.000001 0.000005 7.307950 5.550640 -8.735810 12.994500 -0.242716 -4.980390 88.962700 6.492770 -80.907800 -5.348130 -0.000001 -0.000004 -42.259900 55.259000 -48.436900 -24.328900 0.000322 -0.000009 2.106660 -0.538303 -104.387000 -22.291500 -0.000108 -0.000004 21.450900 5.634880 -13.704100 -2.192480 -6.469440 -0.000000 178.031000 -11.373300 -24.617200 39.081100 -0.000007 -0.000012 -0.115914 0.028993 75.960200 40.985400 -0.000006 -0.000013 13.238600 -15.037500 -50.447900 11.754300 -0.000000 0.000003 -0.007458 -0.083561 -19.979000 -2.192510 6.469440 -0.000001 -178.793000 14.328600 177.595000 -39.081100 -0.002282 -0.040193 0.076594 -0.120718 31.264200 -40.985400 0.000008 0.000006 24.239700 1.221750 -74.887300 -11.754300 -0.000006 -0.000006 -0.029250 -0.214003 -25.338500
0.000000 0.000000 0.000000 0.000000 0.000000 -0.000000 132.262000 90.070900 152.193000 120.729000 -66.132400 24.374800 15.735700 0.000005 -0.000001 127.711000 84.173900 -129.450000 8.984550 -0.406207 -0.000000 1.577680 7.217570 -3.578840 16.377300 -0.000001 -0.000001 0.099123 -10.454000 3.985710 6.456720 -0.000001 -0.000000 -1.241140 -18.405700 7.885790 12.994200 -0.242716 4.980390 -89.187000 -1.872300 -66.537600 5.348090 -0.000007 -0.000001 -67.733700 45.323100 25.577800 24.328600 0.000019 0.000005 -4.732130 -1.350320 -74.114700 22.291600 -0.000001 0.000005 5.739980 5.547420 -8.581830 12.994500 -0.242716 -4.980390 89.522400 3.705280 -82.658800 -5.348130 -0.000001 -0.000004 -36.814200 55.340400 -57.829500 -24.328900 0.000322 -0.000009 -0.495591 0.163984 -108.299000 -22.291500 -0.000108 -0.000004 20.470100 5.617580 -12.437200 -2.192480 -6.469440 -0.000000 177.259000 -9.758230 -26.944700 39.081100 -0.000007 -0.000012 -0.030827 0.012323 68.219900 40.985400 -0.000006 -0.000013 12.805200 -13.790600 -55.096200 11.754300 -0.000000 0.000003 -0.006832 -0.078220 -19.760900 -2.192510 6.469440 -0.000001 178.022000 12.559300 -179.334000 -39.081100 -0.002282 -0.040193 0.037396 -0.069971 25.973100 -40.985400 0.000008 0.000006 23.675200 8.978040 -71.851500 -11.754300 -0.000006 -0.000006 -0.046079 -0.283490 -28.237200
0.000000 0.000000 0.000000 0.000000 0.000000 -0.000000 129.751000 91.234300 154.711000 128.693000 -71.616300 31.197600 15.735700 0.000005 -0.000001 135.610000 83.769500 -137.776000 8.984550 -0.406207 -0.000000 1.143040 9.026100 -4.425550 16.377300 -0.000001 -0.000001 -0.523765 -9.103060 3.217880 6.456720 -0.000001 -0.000000 -1.685410 -17.783600 6.989820 12.994200 -0.242716 4.980390 -88.002400 -4.356060 -65.337000 5.348090 -0.000007 -0.000001 -70.686700 42.265700 30.707400 24.328600 0.000019 0.000005 -1.462690 -0.397231 -74.818000 22.291600 -0.000001 0.000005 5.416770 5.532930 -7.924250 12.994500 -0.242716 -4.980390 89.840300 1.481660 -83.857300 -5.348130 -0.000001 -0.000004 -32.396200 54.659000 -64.718300 -24.328900 0.000322 -0.000009 0.018828 -0.007571 -111.481000 -22.291500 -0.000108 -0.000004 18.597300 5.594550 -11.001300 -2.192480 -6.469440 -0.000000 177.611000 -8.870130 -28.155800 39.081100 -0.000007 -0.000012 0.046751 -0.028784 58.376200 40.985400 -0.000006 -0.000013 10.144200 -11.676500 -58.926900 11.754300 -0.000000 0.000003 -0.007204 -0.081412 -19.891200 -2.192510 6.469440 -0.000001 175.127000 12.395900 -177.005000 -39.081100 -0.002282 -0.040193 0.026249 -0.056033 22.257300 -40.985400 0.000008 0.000006 23.043600 16.176900 -69.623000 -11.754300 -0.000006 -0.000006 -0.061804 -0.337594 -30.521500
